<svg xmlns="http://www.w3.org/2000/svg" width="512" height="512" fill="none"><g clip-path="url(#a)"><path fill="#000" d="M213.23 40.84h85.54l2.44 88.69H210.8l2.44-88.69Z"/><path fill="#000" d="M225.45 5.83h61.1l2.44 88.69h-65.98l2.44-88.69Z"/><path fill="#A00" d="M231.56 0h48.88l1.22 6.11h-51.32L231.56 0Z"/><path fill="#000" d="M298.77 471.16h-85.54l-2.44-88.69h90.42l-2.44 88.69Z"/><path fill="#000" d="M286.55 506.17h-61.1l-2.44-88.69h65.98l-2.44 88.69Z"/><path fill="#A00" d="M280.44 512h-48.88l-1.22-6.11h51.32l-1.22 6.11Z"/><path fill="#000" d="m377.9 73.62 60.48 60.48-60.98 64.44-63.94-63.94 64.44-60.98Z"/><path fill="#000" d="m411.3 57.5 43.2 43.2-60.99 64.45-46.66-46.66L411.3 57.5Z"/><path fill="#A00" d="m419.74 57.7 34.56 34.56-3.46 5.19-36.29-36.3 5.19-3.45Z"/><path fill="#000" d="M134.1 438.38 73.62 377.9l60.98-64.44 63.94 63.94-64.44 60.98Z"/><path fill="#000" d="m100.7 454.5-43.2-43.2 60.99-64.45 46.66 46.66-64.44 60.99Z"/><path fill="#A00" d="M92.26 454.3 57.7 419.74l3.46-5.19 36.29 36.3-5.19 3.45Z"/><path fill="#000" d="M471.16 213.23v85.54l-88.69 2.44V210.8l88.69 2.44Z"/><path fill="#000" d="M506.17 225.45v61.1l-88.69 2.44v-65.98l88.69 2.44Z"/><path fill="#A00" d="M512 231.56v48.88l-6.11 1.22v-51.32l6.11 1.22Z"/><path fill="#000" d="M40.84 298.77v-85.54l88.69-2.44v90.42l-88.69-2.44Z"/><path fill="#000" d="M5.83 286.55v-61.1l88.69-2.44v65.98l-88.69-2.44Z"/><path fill="#A00" d="M0 280.44v-48.88l6.11-1.22v51.32L0 280.44Z"/><path fill="#000" d="m438.38 377.9-60.48 60.48-64.44-60.98 63.94-63.94 60.98 64.44Z"/><path fill="#000" d="m454.5 411.3-43.2 43.2-64.45-60.99 46.66-46.66 60.99 64.44Z"/><path fill="#A00" d="m454.3 419.74-34.56 34.56-5.19-3.46 36.3-36.29 3.45 5.19Z"/><path fill="#000" d="m73.62 134.1 60.48-60.48 64.44 60.98-63.94 63.94-60.98-64.44Z"/><path fill="#000" d="m57.5 100.7 43.2-43.2 64.45 60.99-46.66 46.66L57.5 100.7Z"/><path fill="#A00" d="M57.7 92.26 92.26 57.7l5.19 3.46-36.3 36.29-3.45-5.19Z"/><path fill="#000" d="m256 52.54 144.3 59.77 59.77 144.3-59.77 144.3L256 460.68 111.7 400.9 51.93 256.6l59.77-144.3L256 52.54Z"/><path fill="#fff" fill-opacity=".1" d="M372.65 373.26 256 421.57l-116.65-48.31L91.04 256.6l48.31-116.65L256 91.65l116.65 48.31 48.31 116.65-48.31 116.65Z"/><path fill="#FF8E8E" fill-opacity=".12" d="m131.36 255.39 45.21 92.87 20.78 7.33-20.78-100.2 11-67.2 56.21-36.67-19.55-13.44-61.1 25.66-31.77 91.65Z"/><path fill="#FF8E8E" fill-opacity=".06" fill-rule="evenodd" d="M256 420.27 372.55 372l48.31-116.65-48.31-116.65L256 90.42v329.85Z" clip-rule="evenodd"/></g><defs><clipPath id="a"><path fill="#fff" d="M0 0h512v512H0z"/></clipPath></defs></svg>